<?xml version="1.0" encoding="UTF-8"?>
<svg width="230px" height="236px" viewBox="0 0 230 236" version="1.1" xmlns="http://www.w3.org/2000/svg" xmlns:xlink="http://www.w3.org/1999/xlink">
    <!-- Generator: Sketch 51.3 (57544) - http://www.bohemiancoding.com/sketch -->
    <title>empty ads graphic</title>
    <desc>Created with Sketch.</desc>
    <defs></defs>
    <g id="empty-ads-graphic" stroke="none" stroke-width="1" fill="none" fill-rule="evenodd">
        <g id="drawers" transform="translate(0.000000, 72.000000)" fill-rule="nonzero">
            <rect id="Rectangle-2" fill-opacity="0.5" fill="#0D475C" transform="translate(91.000000, 75.500000) rotate(-360.000000) translate(-91.000000, -75.500000) " x="8" y="7" width="166" height="137" rx="8"></rect>
            <path d="M166.8875,0 L2.1125,0 C0.94484858,0 0,0.945880114 0,2.1125 L0,148.258716 C0,149.425336 0.94484858,150.371216 2.1125,150.371216 L9.79365013,150.371216 L13.8550294,161.459915 C14.081958,162.410953 14.9319092,163.081424 15.9097656,163.081424 L28.5847656,163.081424 C29.562622,163.081424 30.4125733,162.410953 30.6395018,161.459915 L34.7008811,150.371216 L134.299119,150.371216 L138.360498,161.459915 C138.587427,162.410953 139.437378,163.081424 140.415234,163.081424 L153.090234,163.081424 C154.068091,163.081424 154.918042,162.410953 155.144971,161.459915 L159.20635,150.371216 L166.8875,150.371216 C168.055151,150.371216 169,149.425336 169,148.258716 L169,2.1125 C169,0.945880114 168.055151,0 166.8875,0 Z M4.225,40.761554 L164.775,40.761554 L164.775,73.0731081 L4.225,73.0731081 L4.225,40.761554 Z M4.225,77.2981079 L164.775,77.2981079 L164.775,109.609662 L4.225,109.609662 L4.225,77.2981079 Z M164.775,4.225 L164.775,36.536554 L4.225,36.536554 L4.225,4.225 L164.775,4.225 Z M26.9178711,158.98314 L17.5766602,158.98314 L14.1375298,150.371216 L30.3570014,150.371216 L26.9178711,158.98314 Z M151.42334,159 L142.082129,159 L138.642999,150.371216 L154.86247,150.371216 L151.42334,159 Z M4.225,146.146216 L4.225,113.834662 L164.775,113.834662 L164.775,146.146216 L4.225,146.146216 Z" id="Shape" fill="#3C3241"></path>
            <path d="M37.0689655,22 L47.9310345,22 C49.0746229,22 50,21.1044922 50,20 C50,18.8955078 49.0746229,18 47.9310345,18 L37.0689655,18 C35.9253771,18 35,18.8955078 35,20 C35,21.1044922 35.9253771,22 37.0689655,22 Z" id="Shape" fill="#3C3241"></path>
            <path d="M47.9310345,55 L37.0689655,55 C35.9253771,55 35,55.8955078 35,57 C35,58.1044922 35.9253771,59 37.0689655,59 L47.9310345,59 C49.0746229,59 50,58.1044922 50,57 C50,55.8955078 49.0746229,55 47.9310345,55 Z" id="Shape" fill="#3C3241"></path>
            <path d="M47.9310345,92 L37.0689655,92 C35.9253771,92 35,92.8955078 35,94 C35,95.1044922 35.9253771,96 37.0689655,96 L47.9310345,96 C49.0746229,96 50,95.1044922 50,94 C50,92.8955078 49.0746229,92 47.9310345,92 Z" id="Shape" fill="#3C3241"></path>
            <path d="M47.9310345,129 L37.0689655,129 C35.9253771,129 35,129.895508 35,131 C35,132.104492 35.9253771,133 37.0689655,133 L47.9310345,133 C49.0746229,133 50,132.104492 50,131 C50,129.895508 49.0746229,129 47.9310345,129 Z" id="Shape" fill="#3C3241"></path>
            <path d="M121.068966,22 L131.931034,22 C133.074623,22 134,21.1044922 134,20 C134,18.8955078 133.074623,18 131.931034,18 L121.068966,18 C119.925377,18 119,18.8955078 119,20 C119,21.1044922 119.925377,22 121.068966,22 Z" id="Shape" fill="#3C3241"></path>
            <path d="M131.931034,55 L121.068966,55 C119.925377,55 119,55.8955078 119,57 C119,58.1044922 119.925377,59 121.068966,59 L131.931034,59 C133.074623,59 134,58.1044922 134,57 C134,55.8955078 133.074623,55 131.931034,55 Z" id="Shape" fill="#3C3241"></path>
            <path d="M131.931034,92 L121.068966,92 C119.925377,92 119,92.8955078 119,94 C119,95.1044922 119.925377,96 121.068966,96 L131.931034,96 C133.074623,96 134,95.1044922 134,94 C134,92.8955078 133.074623,92 131.931034,92 Z" id="Shape" fill="#3C3241"></path>
            <path d="M131.931034,129 L121.068966,129 C119.925377,129 119,129.895508 119,131 C119,132.104492 119.925377,133 121.068966,133 L131.931034,133 C133.074623,133 134,132.104492 134,131 C134,129.895508 133.074623,129 131.931034,129 Z" id="Shape" fill="#3C3241"></path>
        </g>
        <g id="Lamp" transform="translate(18.000000, 2.000000)" fill-rule="nonzero">
            <path d="M23.7863937,0.368146021 L36.6864985,0.368146021 C40.2601945,0.368146021 43.4004392,2.73837661 44.3800618,6.17518363 L49.6267258,24.582039 C50.8378655,28.8310767 48.3751626,33.257425 44.1261249,34.4685647 C43.4128759,34.6718682 42.6748205,34.7750014 41.9331626,34.7750014 L19.4998446,34.7750014 C15.0815666,34.7750014 11.4998446,31.1932794 11.4998446,26.7750014 C11.4998446,26.1642019 11.5697956,25.5554118 11.7083303,24.9605302 L15.9948795,6.55367483 C16.8384411,2.93133966 20.0671319,0.368146021 23.7863937,0.368146021 Z" id="Rectangle-2-Copy" fill-opacity="0.5" fill="#0D475C" transform="translate(30.717532, 17.571574) rotate(-360.000000) translate(-30.717532, -17.571574) "></path>
            <path d="M51.2,35.8348328 L42.4,5.13483275 C41.9,3.23483275 40.3,2.03483275 38.5,2.03483275 L13.5,2.03483275 C11.6,2.03483275 10.1,3.23483275 9.6,5.13483275 L0.8,35.8348328 C0.6,36.6348328 0.7,37.5348328 1.3,38.2348328 C2,39.2348328 3.4,39.8348328 4.7,39.8348328 L24.2,39.8348328 L24.2,67.2 L13.5,67.2 C12.5,67.2 11.7,68 11.7,69 C11.7,70 12.5,70.8 13.5,70.8 L26,70.8 C26,70.8 29.7124382,70.8 37.1373147,70.8 C38.1373147,70.8 38.9373147,70 38.9373147,69 C38.9373147,68 38.1373147,67.2 37.1373147,67.2 L27.8,67.2 L27.8,39.8348328 L47.2,39.8348328 C48.6,39.8348328 49.9,39.2348328 50.6,38.2348328 C51.3,37.5348328 51.5,36.6348328 51.2,35.8348328 Z M47.3,36.4 L4.7,36.4 C4.6,36.4 4.4,36.4 4.3,36.3 L13,6.2 C13.1,5.7 13.4,5.7 13.5,5.7 L38.5,5.7 C38.6,5.7 38.9,5.7 39,6.2 L47.6,36.3 C47.6,36.4 47.4,36.4 47.3,36.4 Z" id="Shape" fill="#3C3241"></path>
        </g>
        <g id="Price-tags" transform="translate(60.000000, -2.000000)" fill-rule="nonzero">
            <g id="chest_pricetag" transform="translate(141.611735, 108.325128) rotate(-15.000000) translate(-141.611735, -108.325128) translate(112.611735, 80.825128)">
                <rect id="Rectangle-2" fill-opacity="0.5" fill="#52A744" transform="translate(30.802367, 27.527216) rotate(-315.000000) translate(-30.802367, -27.527216) " x="6.35830313" y="14.317924" width="48.8881273" height="26.4185843" rx="8"></rect>
                <path d="M3.30930164,24.455729 C3.29207825,24.7423378 3.39817432,25.0234349 3.60278816,25.228057 L30.4940073,52.1231218 C31.6658865,53.2922927 33.5742379,53.2922927 34.7447393,52.1231218 C34.747495,52.118988 34.7516286,52.1148543 34.7543844,52.1107205 L50.1100676,36.7557929 C50.1142012,36.7516591 50.1169569,36.7475253 50.1210905,36.7447695 C51.2929698,35.5742206 51.2929698,33.6671699 50.1210905,32.4938652 L23.2278046,5.60086728 C23.0245687,5.39762308 22.7421051,5.29152271 22.4541301,5.30736887 L5.71644226,6.28845277 L1.7226832,2.29453186 C1.32998997,1.90182271 0.690657832,1.90182271 0.29658673,2.29453186 C-0.0988622433,2.68861893 -0.0988622433,3.32659905 0.29658673,3.72068613 L4.29034578,7.71598496 L3.30930164,24.455729 Z M15.1341905,15.7093385 L14.1503906,14.7241208 C14.6767373,14.6407562 15.234775,14.7992178 15.6398691,15.2043283 C16.3115812,15.8774456 16.3115812,16.9687636 15.6398691,17.639814 C14.9667791,18.3129312 13.8755053,18.3129312 13.2044821,17.639814 C12.7993881,17.2360814 12.639555,16.6780211 12.7242941,16.151653 L13.708094,17.1368707 C14.1021651,17.5309578 14.7414972,17.5309578 15.1341905,17.1368707 C15.5310173,16.7427836 15.5310173,16.1034256 15.1341905,15.7093385 Z M5.79861727,23.4404791 L6.68134094,10.5220559 L10.969759,14.8001936 C10.169216,16.2263479 10.5658592,17.8568375 11.7770078,19.0680351 C13.2354842,20.5265707 15.6095559,20.5265707 17.0666545,19.0680351 C18.5265088,17.6094996 18.5265088,15.2353317 17.0666545,13.7767961 C15.8568838,12.5655984 14.3258295,12.1450542 12.9024888,12.9456297 L8.47875668,8.95694787 L21.8756318,8.04833705 L47.9668806,33.9764969 C48.346484,34.3588716 48.4809557,34.9820603 48.1027301,35.3685688 C48.0985965,35.3713247 33.4708293,49.8344912 33.4666957,49.837247 C33.0829586,50.21411 32.4629167,50.2113542 32.0805575,49.8303574 L5.79861727,23.4404791 Z" id="Shape" fill="#3C3241"></path>
                <path d="M33.4240994,36.2863436 L32.6568091,36.5095448 C31.8773397,36.7444934 31.0491533,36.6740088 30.3184007,36.3098385 C29.4293184,35.8751836 28.4428023,35.6754772 27.4562863,35.7342144 C27.6998705,35.1585903 27.846021,34.5359765 27.8947378,33.9133627 L27.8947378,33.8781204 C27.9312755,33.4669604 27.9434547,33.0558003 27.9434547,32.6328928 L30.1478918,32.6328928 C30.8177483,32.6328928 31.3658128,32.1042584 31.3658128,31.4581498 C31.3658128,30.8120411 30.8177483,30.2834068 30.1478918,30.2834068 L27.7485873,30.2834068 C27.6876913,29.8957416 27.6024368,29.5198238 27.5050031,29.1321586 C27.3466734,28.4860499 27.2614189,27.9221733 27.2614189,27.4522761 C27.2614189,27.1703377 27.3101357,26.9001468 27.4197486,26.6417034 C27.5293615,26.3832599 27.6755121,26.1600587 27.8582002,25.9720999 C28.0530676,25.7723935 28.2844726,25.6314244 28.5645944,25.5139501 C28.832537,25.4082232 29.1491965,25.349486 29.4902144,25.349486 C30.3184007,25.349486 31.3049168,25.5139501 31.5972178,26.8414097 C31.7311891,27.4757709 32.3766873,27.886931 33.0343646,27.7459618 C33.692042,27.6167401 34.1183144,26.9941263 33.9721638,26.3597651 C33.5093539,24.2217327 31.8773397,23 29.4780352,23 C28.8081786,23 28.1870389,23.1174743 27.614616,23.3524229 C27.0300139,23.5873715 26.5428455,23.9045521 26.1043939,24.339207 C25.6903008,24.7503671 25.3736413,25.2202643 25.1422363,25.7723935 C24.9230105,26.3010279 24.8133976,26.876652 24.8133976,27.4522761 C24.8133976,28.0983847 24.9230105,28.8502203 25.1300571,29.6842878 C25.1787739,29.8839941 25.2274908,30.0837004 25.2640284,30.2834068 L23.217921,30.2834068 C22.5480645,30.2834068 22,30.8120411 22,31.4581498 C22,32.1042584 22.5480645,32.6328928 23.217921,32.6328928 L25.5076126,32.6328928 C25.5076126,32.9853157 25.4954334,33.3377386 25.471075,33.6901615 L25.471075,33.7254038 C25.4101789,34.4419971 25.1422363,35.1350954 24.7037847,35.722467 L24.1191826,36.4860499 C23.8268816,36.8619677 23.8025231,37.3671072 24.0461074,37.7782673 C24.2896916,38.1776799 24.7646808,38.4126285 25.23967,38.3538913 L27.4075694,38.1071953 C28.0287092,38.0367107 28.6498489,38.1424376 29.2100926,38.4126285 C30.0017413,38.8002937 30.8664652,39 31.7433683,39 C32.2914328,39 32.8394973,38.917768 33.3753825,38.7650514 L34.1426728,38.5418502 C34.7881709,38.3538913 35.1413681,37.6960352 34.9465007,37.0734214 C34.7516333,36.4508076 34.0695975,36.0983847 33.4240994,36.2863436 Z" id="Shape" fill="#3C3241" transform="translate(28.500000, 31.000000) rotate(-45.000000) translate(-28.500000, -31.000000) "></path>
            </g>
            <g id="Lamp-price-tag" transform="translate(35.482325, 33.842165) rotate(-15.000000) translate(-35.482325, -33.842165) translate(6.482325, 6.842165)">
                <rect id="Rectangle-2" fill-opacity="0.5" fill="#52A744" transform="translate(30.550733, 26.753632) rotate(-315.000000) translate(-30.550733, -26.753632) " x="6.10666933" y="13.54434" width="48.8881273" height="26.4185843" rx="8"></rect>
                <path d="M3.30930164,24.455729 C3.29207825,24.7423378 3.39817432,25.0234349 3.60278816,25.228057 L30.4940073,52.1231218 C31.6658865,53.2922927 33.5742379,53.2922927 34.7447393,52.1231218 C34.747495,52.118988 34.7516286,52.1148543 34.7543844,52.1107205 L50.1100676,36.7557929 C50.1142012,36.7516591 50.1169569,36.7475253 50.1210905,36.7447695 C51.2929698,35.5742206 51.2929698,33.6671699 50.1210905,32.4938652 L23.2278046,5.60086728 C23.0245687,5.39762308 22.7421051,5.29152271 22.4541301,5.30736887 L5.71644226,6.28845277 L1.7226832,2.29453186 C1.32998997,1.90182271 0.690657832,1.90182271 0.29658673,2.29453186 C-0.0988622433,2.68861893 -0.0988622433,3.32659905 0.29658673,3.72068613 L4.29034578,7.71598496 L3.30930164,24.455729 Z M15.1341905,15.7093385 L14.1503906,14.7241208 C14.6767373,14.6407562 15.234775,14.7992178 15.6398691,15.2043283 C16.3115812,15.8774456 16.3115812,16.9687636 15.6398691,17.639814 C14.9667791,18.3129312 13.8755053,18.3129312 13.2044821,17.639814 C12.7993881,17.2360814 12.639555,16.6780211 12.7242941,16.151653 L13.708094,17.1368707 C14.1021651,17.5309578 14.7414972,17.5309578 15.1341905,17.1368707 C15.5310173,16.7427836 15.5310173,16.1034256 15.1341905,15.7093385 Z M5.79861727,23.4404791 L6.68134094,10.5220559 L10.969759,14.8001936 C10.169216,16.2263479 10.5658592,17.8568375 11.7770078,19.0680351 C13.2354842,20.5265707 15.6095559,20.5265707 17.0666545,19.0680351 C18.5265088,17.6094996 18.5265088,15.2353317 17.0666545,13.7767961 C15.8568838,12.5655984 14.3258295,12.1450542 12.9024888,12.9456297 L8.47875668,8.95694787 L21.8756318,8.04833705 L47.9668806,33.9764969 C48.346484,34.3588716 48.4809557,34.9820603 48.1027301,35.3685688 C48.0985965,35.3713247 33.4708293,49.8344912 33.4666957,49.837247 C33.0829586,50.21411 32.4629167,50.2113542 32.0805575,49.8303574 L5.79861727,23.4404791 Z" id="Shape" fill="#3C3241"></path>
                <path d="M33.4240994,36.2863436 L32.6568091,36.5095448 C31.8773397,36.7444934 31.0491533,36.6740088 30.3184007,36.3098385 C29.4293184,35.8751836 28.4428023,35.6754772 27.4562863,35.7342144 C27.6998705,35.1585903 27.846021,34.5359765 27.8947378,33.9133627 L27.8947378,33.8781204 C27.9312755,33.4669604 27.9434547,33.0558003 27.9434547,32.6328928 L30.1478918,32.6328928 C30.8177483,32.6328928 31.3658128,32.1042584 31.3658128,31.4581498 C31.3658128,30.8120411 30.8177483,30.2834068 30.1478918,30.2834068 L27.7485873,30.2834068 C27.6876913,29.8957416 27.6024368,29.5198238 27.5050031,29.1321586 C27.3466734,28.4860499 27.2614189,27.9221733 27.2614189,27.4522761 C27.2614189,27.1703377 27.3101357,26.9001468 27.4197486,26.6417034 C27.5293615,26.3832599 27.6755121,26.1600587 27.8582002,25.9720999 C28.0530676,25.7723935 28.2844726,25.6314244 28.5645944,25.5139501 C28.832537,25.4082232 29.1491965,25.349486 29.4902144,25.349486 C30.3184007,25.349486 31.3049168,25.5139501 31.5972178,26.8414097 C31.7311891,27.4757709 32.3766873,27.886931 33.0343646,27.7459618 C33.692042,27.6167401 34.1183144,26.9941263 33.9721638,26.3597651 C33.5093539,24.2217327 31.8773397,23 29.4780352,23 C28.8081786,23 28.1870389,23.1174743 27.614616,23.3524229 C27.0300139,23.5873715 26.5428455,23.9045521 26.1043939,24.339207 C25.6903008,24.7503671 25.3736413,25.2202643 25.1422363,25.7723935 C24.9230105,26.3010279 24.8133976,26.876652 24.8133976,27.4522761 C24.8133976,28.0983847 24.9230105,28.8502203 25.1300571,29.6842878 C25.1787739,29.8839941 25.2274908,30.0837004 25.2640284,30.2834068 L23.217921,30.2834068 C22.5480645,30.2834068 22,30.8120411 22,31.4581498 C22,32.1042584 22.5480645,32.6328928 23.217921,32.6328928 L25.5076126,32.6328928 C25.5076126,32.9853157 25.4954334,33.3377386 25.471075,33.6901615 L25.471075,33.7254038 C25.4101789,34.4419971 25.1422363,35.1350954 24.7037847,35.722467 L24.1191826,36.4860499 C23.8268816,36.8619677 23.8025231,37.3671072 24.0461074,37.7782673 C24.2896916,38.1776799 24.7646808,38.4126285 25.23967,38.3538913 L27.4075694,38.1071953 C28.0287092,38.0367107 28.6498489,38.1424376 29.2100926,38.4126285 C30.0017413,38.8002937 30.8664652,39 31.7433683,39 C32.2914328,39 32.8394973,38.917768 33.3753825,38.7650514 L34.1426728,38.5418502 C34.7881709,38.3538913 35.1413681,37.6960352 34.9465007,37.0734214 C34.7516333,36.4508076 34.0695975,36.0983847 33.4240994,36.2863436 Z" id="Shape" fill="#3C3241" transform="translate(28.500000, 31.000000) rotate(-45.000000) translate(-28.500000, -31.000000) "></path>
            </g>
        </g>
    </g>
</svg>